<?xml version="1.0" standalone="no"?><!DOCTYPE svg PUBLIC "-//W3C//DTD SVG 1.1//EN" "http://www.w3.org/Graphics/SVG/1.1/DTD/svg11.dtd"><svg t="1625801828174" class="icon" viewBox="0 0 1024 1024" version="1.1" xmlns="http://www.w3.org/2000/svg" p-id="2483" xmlns:xlink="http://www.w3.org/1999/xlink" width="200" height="200"><defs><style type="text/css"></style></defs><path d="M512 1023.988053a35.839582 35.839582 0 0 1-16.213144-3.413293A42.666169 42.666169 0 0 1 469.333831 981.321885v-366.502391l-161.70478 162.131442a42.666169 42.666169 0 0 1-60.58596-60.58596l204.797611-204.370949-204.797611-204.370949a42.666169 42.666169 0 0 1 60.58596-60.58596L469.333831 409.16856V42.666169a42.666169 42.666169 0 0 1 26.453025-39.252875 42.666169 42.666169 0 0 1 46.506124 8.959895l234.663929 234.663929a42.666169 42.666169 0 0 1 0 60.58596L572.159298 511.994027l204.797611 204.370949a42.666169 42.666169 0 0 1 0 60.58596l-234.663929 234.663928A42.666169 42.666169 0 0 1 512 1023.988053z m42.666169-409.168559v263.676924l131.838462-131.838462z m0-469.327858v263.676924l131.838462-131.838462z" p-id="2484" fill="#ffffff"></path></svg>